<svg width="45" height="50" viewBox="0 0 45 50" fill="none" xmlns="http://www.w3.org/2000/svg">
<path d="M26.0702 8.13654C22.6805 12.822 18.786 21.7243 21.937 27.0277C23.0624 28.9291 25.1154 29.2957 26.2407 29.3501C28.9348 29.4655 31.9153 28.1549 33.3272 26.2129C36.5123 21.8398 33.7432 16.2648 31.0628 10.8731C29.6168 7.96677 28.2459 5.20304 27.7071 2.56833C17.3469 7.8785 11.2903 14.4585 11.0243 20.7329C10.8811 24.1282 12.5794 27.1364 15.6827 28.9834C16.5284 29.4859 17.34 29.7847 18.1244 30.0699C19.8636 30.7014 21.6642 31.3601 22.1689 34.1917C22.3667 35.3053 22.5099 36.3036 22.6463 37.261C23.0692 40.2353 23.4648 43.0465 25.5178 48.6351C25.7087 49.1648 25.4359 49.7488 24.9107 49.9389C24.7948 49.9796 24.6788 50 24.5629 50C24.1468 50 23.7513 49.742 23.6012 49.3277C21.4801 43.5354 21.064 40.6223 20.6275 37.5394C20.4911 36.5956 20.3547 35.6177 20.1637 34.538C19.8704 32.8676 19.052 32.5688 17.4355 31.978C16.6034 31.6724 15.6622 31.3329 14.646 30.7285C10.8743 28.4809 8.81447 24.8072 8.9918 20.6447C9.29872 13.3449 16.2624 5.85493 28.0822 0.103369C28.3892 -0.0460223 28.7438 -0.0324392 29.0439 0.137323C29.3372 0.307086 29.5282 0.60587 29.5555 0.945395C29.7532 3.62085 31.2879 6.70374 32.9111 9.96997C35.7212 15.6265 38.9131 22.0367 35.005 27.408C33.1839 29.9069 29.535 31.5434 26.1657 31.3872C23.5125 31.265 21.3914 30.0835 20.1978 28.0667C16.2692 21.4391 21.2481 11.3552 24.4333 6.9482C24.7607 6.49324 25.4018 6.39138 25.8588 6.71732C26.3158 7.04327 26.4249 7.68157 26.0907 8.13654H26.0702ZM28.2323 33.6349C25.3609 35.3257 24.1809 38.5037 25.2927 41.5255C25.4905 42.0551 26.077 42.3267 26.6022 42.1298C27.1342 41.9329 27.407 41.3489 27.2092 40.826C26.4317 38.7142 27.2433 36.582 29.269 35.3868C32.2427 33.6349 37.3444 34.2664 42.3302 39.3932C40.5705 40.4729 39.3564 41.9397 38.2584 43.257C36.7306 45.104 35.7075 46.2381 34.0774 46.2652C32.3928 46.3128 31.5129 45.2059 31.2469 44.1738C30.9809 43.1212 31.2333 41.6001 32.8293 40.7717C34.5071 39.9025 35.8098 40.5476 35.8575 40.5748C36.3486 40.8396 36.9761 40.6631 37.2489 40.1674C37.5217 39.6717 37.3376 39.0537 36.8397 38.7821C36.751 38.7346 34.5617 37.5802 31.8881 38.9654C29.3986 40.2556 28.7779 42.7613 29.269 44.6762C29.8351 46.8899 31.6903 48.3092 34.0092 48.3092C34.0433 48.3092 34.0774 48.3092 34.1115 48.3092C36.7647 48.2616 38.3266 46.3807 39.8339 44.5608C41.082 43.0533 42.3711 41.4983 44.3899 40.6155C44.69 40.4865 44.9083 40.2217 44.9765 39.9025C45.0447 39.5834 44.9629 39.2574 44.7514 39.013C38.3061 31.6521 31.8199 31.5163 28.2255 33.6349H28.2323ZM9.11456 48.9678C9.44877 49.0222 9.81708 49.0969 10.2127 49.1716C11.263 49.3821 12.5112 49.6265 13.732 49.6265C14.8574 49.6265 15.9555 49.416 16.8353 48.7641C17.9061 47.9764 18.4927 46.7813 18.4859 45.396C18.4859 43.5151 17.3878 41.41 15.8259 40.2828C12.668 37.9944 9.36693 38.6055 6.76152 41.9668C6.41368 42.415 6.50234 43.0533 6.94567 43.3928C7.389 43.7392 8.03694 43.6509 8.37796 43.2095C10.315 40.7106 12.3543 40.2896 14.6187 41.9261C15.6486 42.6731 16.4329 44.167 16.4397 45.4028C16.4397 46.143 16.1669 46.727 15.6213 47.1276C14.5095 47.9425 12.2588 47.5011 10.6151 47.1751C10.1922 47.0937 9.79662 47.0122 9.44195 46.9579L8.7872 46.8492C6.67286 46.5029 4.33344 46.1226 2.10997 46.6047C2.60786 41.7971 6.06583 36.29 11.1266 34.8708C12.3543 34.5312 13.998 34.8029 15.1234 35.5362C15.6349 35.869 16.2624 36.4394 16.3783 37.2882C16.4534 37.845 16.9717 38.2253 17.531 38.1574C18.0903 38.0827 18.479 37.5666 18.404 37.0098C18.2335 35.7603 17.4628 34.6263 16.2419 33.8318C14.605 32.7657 12.3747 32.399 10.5673 32.9083C3.8901 34.7825 -0.113496 42.2181 0.00245162 48.0308C0.00927207 48.3703 0.186605 48.6827 0.473064 48.866C0.759523 49.0493 1.12101 49.0765 1.43475 48.9407C3.52181 48.0375 6.03172 48.4518 8.45298 48.8456L9.12139 48.9543L9.11456 48.9678Z" fill="#323232"/>
</svg>
