<svg width="48" height="50" viewBox="0 0 48 50" fill="none" xmlns="http://www.w3.org/2000/svg">
<path d="M15.2026 19.5648C16.7312 6.1417 32.3875 0.301316 33.0575 0.0598697C33.5193 -0.109795 34.0267 0.0924981 34.2543 0.523185C34.3584 0.718952 44.1997 19.9694 26.7091 31.1868C26.5465 31.2912 26.3643 31.3434 26.1822 31.3434C25.8635 31.3434 25.5448 31.1868 25.3626 30.8932C25.0699 30.4364 25.2065 29.8295 25.6618 29.5424C39.8807 20.4196 34.521 5.83499 32.9144 2.23288C29.7402 3.60325 18.3508 9.23481 17.1474 19.7866C17.0889 20.3217 16.6011 20.7133 16.0677 20.648C15.5343 20.5893 15.1506 20.0999 15.2091 19.5648H15.2026ZM30.0459 8.7976C29.6036 8.48437 28.9987 8.59531 28.6865 9.03905C17.0954 25.6858 22.195 48.2903 22.4226 49.243C22.5267 49.6933 22.93 50 23.3723 50C23.4438 50 23.5219 49.9935 23.5934 49.9739C24.1203 49.8499 24.4455 49.3213 24.3219 48.7993C24.2699 48.5709 19.1899 26.1034 30.2866 10.1614C30.5923 9.7177 30.4882 9.11083 30.0459 8.7976ZM38.6319 21.0657C41.715 20.4588 44.5119 20.6872 45.8974 20.8764C45.4031 23.3757 43.6078 30.3124 38.4107 33.8623C35.0739 36.1397 30.872 36.6487 25.9155 35.3762C25.3952 35.2457 24.8618 35.5589 24.7252 36.081C24.5886 36.603 24.9073 37.1381 25.4277 37.2752C27.366 37.7776 29.2133 38.0256 30.9565 38.0256C34.1698 38.0256 37.0383 37.1773 39.5165 35.4806C46.6259 30.6191 47.9398 20.6219 47.9919 20.1978C48.0569 19.6953 47.7252 19.232 47.2373 19.121C47.0682 19.0819 43.0289 18.2075 38.2546 19.1537C37.7277 19.2581 37.383 19.7736 37.4871 20.3022C37.5911 20.8307 38.105 21.1766 38.6319 21.0722V21.0657ZM30.7614 33.1575C30.859 33.1575 30.9565 33.1445 31.0541 33.1118C33.0965 32.4723 37.0382 30.7953 40.5247 26.8016C40.8824 26.397 40.8369 25.7771 40.4336 25.4182C40.0303 25.0593 39.4124 25.105 39.0546 25.5096C35.8869 29.1443 32.316 30.6582 30.4687 31.239C29.9548 31.4021 29.6686 31.9503 29.8312 32.4658C29.9613 32.8835 30.3451 33.151 30.7614 33.151V33.1575ZM10.1031 37.112C11.5731 37.3665 13.1147 37.6275 14.5391 37.6275C16.9588 37.6275 19.0468 36.864 19.8728 33.9863C20.3997 32.1526 19.6582 30.3254 17.8955 29.1052C15.4107 27.3889 10.812 27.0039 6.59061 30.2014C6.16131 30.5277 6.07676 31.1411 6.40198 31.5718C6.72721 32.0025 7.33863 32.0873 7.76793 31.7611C11.2218 29.1443 14.8644 29.3858 16.7897 30.717C17.2905 31.0628 18.4093 32.0221 17.9995 33.4447C17.206 36.205 14.7343 35.9178 10.4348 35.1805C7.78094 34.7237 4.83439 34.2212 2.17405 34.9064C3.78717 25.4117 7.93704 23.454 10.3502 23.1473C13.2382 22.7819 15.9051 24.4394 16.4059 25.6988C16.6076 26.2013 17.1735 26.4427 17.6743 26.247C18.1751 26.0447 18.4158 25.4769 18.2207 24.9745C17.3621 22.8145 13.8171 20.7329 10.1096 21.2092C7.0069 21.6008 1.57563 24.0805 0.00804198 36.2702C-0.0374896 36.6291 0.112111 36.9815 0.411319 37.1903C0.704022 37.3991 1.08779 37.4318 1.41302 37.2752C3.88474 36.0549 7.05244 36.5965 10.1226 37.1251L10.1031 37.112Z" fill="#323232"/>
</svg>
