<svg width="48" height="36" viewBox="0 0 48 36" fill="none" xmlns="http://www.w3.org/2000/svg">
<path d="M2.87038 27.7549C-1.93017 18.5899 -0.666513 10.2936 6.34042 4.9927C12.4046 0.400816 22.0124 -1.1439 32.0347 0.860942C32.3222 0.917284 32.5629 1.06753 32.6833 1.26003C38.8144 11.2373 32.4292 15.1437 25.0345 19.6604C19.7793 22.8719 13.8287 26.506 11.3883 33.1215C11.2814 33.4173 10.9136 33.6286 10.4791 33.6474C10.459 33.6474 10.4389 33.6474 10.4189 33.6474C10.011 33.6474 9.63662 33.469 9.48284 33.2013C4.17415 23.642 10.2985 11.5894 24.0583 4.53727C24.5063 4.3072 25.1348 4.37763 25.4624 4.69221C25.79 5.00679 25.6897 5.44813 25.2418 5.67819C13.1936 11.8524 7.29651 22.0221 10.4055 30.6143C13.3741 24.9237 18.8366 21.5855 23.724 18.5993C30.9984 14.153 36.2804 10.9274 31.0318 2.12864C21.9188 0.410203 13.2671 1.82815 7.81802 5.95052C1.34597 10.8523 0.229411 18.6228 4.76252 27.2713C4.95642 27.6376 4.68898 28.0413 4.16747 28.1775C3.64596 28.3137 3.07096 28.1258 2.87706 27.7596L2.87038 27.7549ZM26.3383 21.5714C25.8167 21.7028 25.5426 22.1019 25.7298 22.4682C25.917 22.8344 26.492 23.0269 27.0069 22.8954C33.1714 21.3648 39.9042 21.9658 43.3809 24.3603C46.0754 26.2149 46.6838 29.0179 45.146 32.4783C39.61 34.8447 36.7885 33.7225 33.2382 32.2999C29.4807 30.8021 25.2752 29.1212 17.5127 31.4688C19.5653 28.6329 22.3267 26.9051 25.7566 26.3276C30.6106 25.5106 36.1399 27.2338 39.2222 29.1823C39.6367 29.4405 40.2652 29.417 40.6396 29.1306C41.0074 28.8395 40.9739 28.3982 40.5661 28.1352C36.9891 25.8769 30.8781 24.0176 25.2952 24.9566C20.5415 25.7595 16.931 28.3606 14.5642 32.6896C14.4171 32.9666 14.5241 33.2765 14.8383 33.469C15.1526 33.6615 15.6072 33.699 15.9749 33.5629C24.3859 30.3889 28.3842 31.9853 32.2554 33.53C34.4016 34.3845 36.5812 35.2578 39.3559 35.2578C41.3684 35.2578 43.6885 34.7977 46.53 33.5394C46.7239 33.4502 46.871 33.3187 46.9445 33.1638C49.3916 27.9662 47.1251 24.9613 44.7916 23.3556C40.7867 20.5995 33.1981 19.867 26.345 21.5714H26.3383Z" fill="#323232"/>
</svg>
